<?xml version="1.0" encoding="UTF-8" standalone="no"?>
<!-- Created with Inkscape (http://www.inkscape.org/) -->

<svg
  xmlns:dc="http://purl.org/dc/elements/1.1/"
  xmlns:cc="http://creativecommons.org/ns#"
  xmlns:rdf="http://www.w3.org/1999/02/22-rdf-syntax-ns#"
  xmlns:sodipodi="http://sodipodi.sourceforge.net/DTD/sodipodi-0.dtd"
  xmlns:inkscape="http://www.inkscape.org/namespaces/inkscape"
  xmlns="http://www.w3.org/2000/svg"
  version="1.1"
  id="svg2"
  width="225"
  height="225"
  viewBox="0 0 225 225"
  sodipodi:docname="dispomed.svg"
  inkscape:version="0.92.3 (2405546, 2018-03-11)">
  <metadata
    id="metadata8">
    <rdf:RDF>
      <cc:Work
        rdf:about="">
        <dc:format>image/svg+xml</dc:format>
        <dc:type
          rdf:resource="http://purl.org/dc/dcmitype/StillImage"/>
        <dc:title></dc:title>
      </cc:Work>
    </rdf:RDF>
  </metadata>
  <defs
    id="defs6"/>
  <sodipodi:namedview
    pagecolor="#ffffff"
    bordercolor="#666666"
    borderopacity="1"
    objecttolerance="10"
    gridtolerance="10"
    guidetolerance="10"
    inkscape:pageopacity="0"
    inkscape:pageshadow="2"
    inkscape:window-width="1850"
    inkscape:window-height="1016"
    id="namedview4"
    showgrid="false"
    inkscape:zoom="2.9667058"
    inkscape:cx="121.48405"
    inkscape:cy="124.31984"
    inkscape:window-x="70"
    inkscape:window-y="27"
    inkscape:window-maximized="1"
    inkscape:current-layer="svg2"/>
  <path
    style="fill:#006600"
    d="M 171.32749,181.79463 C 163.44737,173.98167 157,167.28627 157,166.91595 c 0,-0.37032 1.24137,-1.1875 2.75859,-1.81595 3.14448,-1.30249 8.5364,-6.09439 10.877,-9.66659 0.87075,-1.32893 1.95487,-2.18652 2.40917,-1.90575 0.4543,0.28077 6.70507,6.77922 13.89062,14.441 11.33316,12.08429 13.06259,14.36792 13.04931,17.23092 -0.0178,3.8361 -0.35827,4.40691 -4.81142,8.06651 -6.29055,5.16959 -7.78845,4.449 -23.84578,-11.47146 z m -112.282188,0.13264 c -8.038725,-1.61122 -14.442429,-5.57401 -22.303267,-13.80185 -5.525198,-5.78316 -8.050246,-9.33326 -9.617197,-13.52131 -2.876907,-7.68922 -2.877731,-18.47645 -0.002,-26.3166 1.984827,-5.41128 4.958912,-8.63406 45.75,-49.575725 C 123.24213,28.156555 121.48028,29.508382 137,29.508382 c 8.41917,0 10.16242,0.324552 15.32238,2.852671 7.63145,3.739023 18.56351,14.669034 22.31665,22.312459 C 177.17734,59.842898 177.5,61.571395 177.5,70 c 0,8.36711 -0.32826,10.155883 -2.75263,15 -1.51395,3.025 -4.07838,7.075 -5.69874,9 -2.54733,3.026241 -3.18993,3.331854 -4.74737,2.257787 -14.24229,-9.821998 -30.20693,-11.567922 -44.7781,-4.897019 -6.01159,2.752193 -14.35434,10.011972 -17.66923,15.375582 l -2.131792,3.44931 -9.865251,-9.82824 L 79.991636,90.529191 61.925988,108.5146 C 51.989881,118.40657 42.895907,128.3 41.717157,130.5 c -3.196447,5.9658 -2.973643,15.39502 0.522669,22.11974 6.097677,11.72813 19.821947,17.8455 31.404939,13.99825 3.867794,-1.28467 6.907591,-3.63925 14.361024,-11.1238 C 93.205879,150.27238 97.806887,146 98.23025,146 98.653612,146 99,146.60748 99,147.34996 c 0,0.74248 1.35,3.21358 3,5.49134 1.65,2.27776 3,4.53112 3,5.00747 0,0.47635 -4.06731,4.78699 -9.038469,9.5792 -13.12732,12.65478 -24.274755,17.03307 -36.916229,14.4993 z m 64.875178,-19.22276 c -10.15153,-4.26231 -15.77255,-9.8214 -20.69709,-20.46905 -2.11832,-4.58015 -2.65712,-7.25583 -2.67486,-13.28321 -0.0192,-6.51403 0.42109,-8.44824 3.21456,-14.12258 3.97145,-8.06716 10.1416,-13.94492 19.0573,-18.154224 5.86054,-2.766896 7.7219,-3.153596 15.17961,-3.153596 7.42373,0 9.32303,0.390449 15,3.083625 8.25478,3.916095 14.46945,10.127075 18.40545,18.394525 2.67612,5.62111 3.08981,7.58171 3.05949,14.5 -0.0283,6.45638 -0.53191,9.06124 -2.61007,13.5 -3.80076,8.11809 -9.87315,14.39095 -17.63118,18.21325 -5.81858,2.86676 -7.82443,3.32171 -15.69736,3.56034 -7.60931,0.23063 -9.90224,-0.0942 -14.60585,-2.06908 z m 26.54636,-8.2131 c 20.79889,-10.0936 20.34754,-40.32576 -0.73979,-49.55178 -13.68046,-5.985406 -30.96077,0.146 -38.02532,13.49216 -3.35348,6.3353 -3.00478,16.43492 0.80873,23.42376 5.54945,10.17023 14.96559,15.35179 26.98954,14.85195 4.34033,-0.18043 8.50721,-1.02244 10.96684,-2.21609 z M 148,111.5 c -98.666667,75.66667 -49.333333,37.83333 0,0 z"
    id="path42"
    inkscape:connector-curvature="0"
    sodipodi:nodetypes="sscsssccssssssssssccssscccssssssssssscscsssssssscccssssccc"/>
</svg>
